<?xml version="1.0" encoding="UTF-8" standalone="no"?>
<svg
   xmlns:dc="http://purl.org/dc/elements/1.1/"
   xmlns:cc="http://creativecommons.org/ns#"
   xmlns:rdf="http://www.w3.org/1999/02/22-rdf-syntax-ns#"
   xmlns:svg="http://www.w3.org/2000/svg"
   xmlns="http://www.w3.org/2000/svg"
   viewBox="0 0 99.999998 100"
   height="100"
   width="100"
   xml:space="preserve"
   id="svg2"
   version="1.1"><metadata
     id="metadata8"><rdf:RDF><cc:Work
         rdf:about=""><dc:format>image/svg+xml</dc:format><dc:type
           rdf:resource="http://purl.org/dc/dcmitype/StillImage" /><dc:title></dc:title></cc:Work></rdf:RDF></metadata><defs
     id="defs6"><clipPath
       id="clipPath18"
       clipPathUnits="userSpaceOnUse"><path
         id="path16"
         d="M 0,703.083 H 1611.5 V 0 H 0 Z" /></clipPath><clipPath
       id="clipPath42"
       clipPathUnits="userSpaceOnUse"><path
         id="path40"
         d="M 0,703.083 H 1611.5 V 0 H 0 Z" /></clipPath></defs><g
     transform="matrix(1.3333333,0,0,-1.3333333,0,100)"
     id="g10"><g
       transform="matrix(0.17234882,0,0,0.17234882,-26.481713,-28.933918)"
       id="g907"><g
   id="g12"
   transform="matrix(1.5043133,0,0,1.5043133,-191.58618,-147.88071)"><g
     id="g14"
     clip-path="url(#clipPath18)"><g
       id="g20"
       transform="translate(384.1035,365.2563)"><path
         d="m 0,0 c 9.07,-6.268 17.957,-9.44 26.448,-9.44 h 5.049 c 16.095,0 29.263,8.328 40.244,25.458 3.442,7.173 5.179,14.813 5.179,22.705 0,17.308 -7.911,30.803 -24.184,41.245 -7.871,4.313 -15.935,6.498 -23.972,6.498 C 18.358,86.466 8.917,83.162 0,76.382 Z m -72.317,-101.151 c 7.856,-4.251 15.913,-6.409 23.954,-6.409 11.688,0 20.759,3.071 29.034,9.895 l 0.14,77.675 c -9.412,6.47 -18.876,9.747 -28.171,9.747 h -1.994 c -18.502,0 -32.839,-9.45 -43.813,-28.893 -2.554,-7.316 -3.853,-14.135 -3.853,-20.263 0,-17.211 8.082,-30.873 24.703,-41.752 m 23.458,-25.274 c -25.97,0 -46.296,12.673 -60.414,37.666 l -0.278,0.555 c -4.202,9.545 -6.331,18.59 -6.331,26.903 v 4.302 c 0,22.523 11.227,41.454 33.362,56.271 l 0.511,0.309 c 10.503,5.671 21.154,8.548 31.663,8.548 h 3.483 c 9.332,0 18.594,-2.249 27.66,-6.696 l 0.071,82.611 1.979,1.86 c 13.659,12.851 28.813,19.093 46.334,19.093 24.194,0 43.691,-11.528 57.94,-34.266 l 0.288,-0.508 C 93.077,58.994 95.95,48.086 95.95,37.81 95.95,18.841 87.678,1.464 71.345,-13.847 l -0.579,-0.486 c -13.203,-9.655 -27.33,-14.551 -42.002,-14.551 -10.054,0 -19.847,2.129 -28.818,6.217 l 0.073,-83.872 -2.032,-1.87 c -12.794,-11.785 -28.993,-18.016 -46.846,-18.016"
         style="fill:#b89d87;fill-opacity:1;fill-rule:nonzero;stroke:none"
         id="path22" /></g></g></g>

</g></g></svg>